<?xml version="1.0" encoding="UTF-8"?>
<!DOCTYPE svg PUBLIC "-//W3C//DTD SVG 1.1//EN" "http://www.w3.org/Graphics/SVG/1.1/DTD/svg11.dtd">
<svg xmlns="http://www.w3.org/2000/svg" version="1.1" width="128px" height="128px" style="shape-rendering:geometricPrecision; text-rendering:geometricPrecision; image-rendering:optimizeQuality; fill-rule:evenodd; clip-rule:evenodd" xmlns:xlink="http://www.w3.org/1999/xlink">
<g><path style="opacity:0.995" fill="#f7f7f7" d="M 63.5,11.5 C 60.5701,12.299 57.5701,12.6323 54.5,12.5C 54.5,11.1667 54.5,9.83333 54.5,8.5C 56.5869,7.41543 57.9202,5.74876 58.5,3.5C 59.8804,2.29354 61.0471,2.62688 62,4.5C 62.977,6.73999 63.477,9.07332 63.5,11.5 Z"/></g>
<g><path style="opacity:0.014" fill="#000000" d="M 69.5,5.5 C 68.8333,5.5 68.5,5.83333 68.5,6.5C 67.5084,6.32842 66.8417,6.66175 66.5,7.5C 65.2267,6.92317 65.2267,6.2565 66.5,5.5C 67.6868,4.34732 68.6868,4.34732 69.5,5.5 Z"/></g>
<g><path style="opacity:0.445" fill="#212121" d="M 58.5,3.5 C 57.9202,5.74876 56.5869,7.41543 54.5,8.5C 55.0798,6.25124 56.4131,4.58457 58.5,3.5 Z"/></g>
<g><path style="opacity:0.894" fill="#1b1b1b" d="M 75.5,8.5 C 75.1667,8.5 74.8333,8.5 74.5,8.5C 74.5,7.5 74.5,6.5 74.5,5.5C 72.3146,5.70356 70.3146,6.37023 68.5,7.5C 68.5,7.16667 68.5,6.83333 68.5,6.5C 69.1667,6.5 69.5,6.16667 69.5,5.5C 73.626,2.22964 75.626,3.22964 75.5,8.5 Z"/></g>
<g><path style="opacity:0.999" fill="#f8f8f8" d="M 74.5,8.5 C 74.3335,17.8393 74.5002,27.1726 75,36.5C 75.21,38.0581 75.71,39.3915 76.5,40.5C 77.455,45.42 78.1217,50.42 78.5,55.5C 78.1706,58.2282 78.8372,60.5615 80.5,62.5C 81.4345,63.5676 81.7678,64.901 81.5,66.5C 81.7689,71.2637 83.1022,75.597 85.5,79.5C 86.0209,83.4809 86.3542,87.4809 86.5,91.5C 84.8333,91.5 83.1667,91.5 81.5,91.5C 80.6499,88.1359 79.4832,84.8026 78,81.5C 77.4375,83.8661 77.6042,86.1994 78.5,88.5C 78.4387,90.6528 77.4387,91.9862 75.5,92.5C 69.4795,90.687 63.8128,91.3537 58.5,94.5C 54.8822,93.6536 51.2155,93.3203 47.5,93.5C 46.5,93.5 45.5,93.5 44.5,93.5C 44.5835,89.6818 45.0835,86.0152 46,82.5C 42.959,86.2627 40.7923,90.2627 39.5,94.5C 38.6561,90.9009 38.3227,87.2343 38.5,83.5C 38.2322,81.901 38.5655,80.5676 39.5,79.5C 42.0564,75.2882 43.3898,70.6216 43.5,65.5C 45.0075,63.8185 46.0075,61.8185 46.5,59.5C 48.873,57.4208 50.2064,54.7541 50.5,51.5C 54.2529,48.1927 56.9196,44.026 58.5,39C 58.1667,38.5 57.8333,38 57.5,37.5C 54.567,39.4624 51.567,41.1291 48.5,42.5C 48.1667,42.5 47.8333,42.5 47.5,42.5C 39.7208,42.8042 32.0542,42.1375 24.5,40.5C 22.9254,38.8863 22.2587,36.8863 22.5,34.5C 22.6596,32.847 23.3263,31.5137 24.5,30.5C 26.2624,29.7377 27.2624,28.4044 27.5,26.5C 30.5,24.1667 33.1667,21.5 35.5,18.5C 37.0269,18.573 38.0269,17.9063 38.5,16.5C 38.8417,15.6618 39.5084,15.3284 40.5,15.5C 42.9029,15.552 45.2362,15.2186 47.5,14.5C 52.2332,14.2232 56.8999,14.5565 61.5,15.5C 62.4252,14.6431 63.0919,13.6431 63.5,12.5C 65.5,11.1667 67.1667,9.5 68.5,7.5C 70.3146,6.37023 72.3146,5.70356 74.5,5.5C 74.5,6.5 74.5,7.5 74.5,8.5 Z"/></g>
<g><path style="opacity:1" fill="#4c4c4c" d="M 66.5,7.5 C 67.1667,7.5 67.8333,7.5 68.5,7.5C 67.1667,9.5 65.5,11.1667 63.5,12.5C 63.5,12.1667 63.5,11.8333 63.5,11.5C 63.477,9.07332 62.977,6.73999 62,4.5C 61.0471,2.62688 59.8804,2.29354 58.5,3.5C 58.8425,1.77484 59.8425,1.27484 61.5,2C 63.2132,3.9251 64.5465,6.09177 65.5,8.5C 66.1067,8.37642 66.44,8.04309 66.5,7.5 Z"/></g>
<g><path style="opacity:0.012" fill="#000000" d="M 77.5,25.5 C 77.334,20.1563 77.5006,14.8229 78,9.5C 78.8174,15.0164 78.6507,20.3497 77.5,25.5 Z"/></g>
<g><path style="opacity:0.217" fill="#050505" d="M 53.5,10.5 C 53.5,11.5 53.5,12.5 53.5,13.5C 51.5,13.5 49.5,13.5 47.5,13.5C 49.6391,12.8419 51.6391,11.8419 53.5,10.5 Z"/></g>
<g><path style="opacity:1" fill="#b6b6b6" d="M 54.5,8.5 C 54.5,9.83333 54.5,11.1667 54.5,12.5C 57.5701,12.6323 60.5701,12.299 63.5,11.5C 63.5,11.8333 63.5,12.1667 63.5,12.5C 63.0919,13.6431 62.4252,14.6431 61.5,15.5C 56.8999,14.5565 52.2332,14.2232 47.5,14.5C 47.5,14.1667 47.5,13.8333 47.5,13.5C 49.5,13.5 51.5,13.5 53.5,13.5C 53.5,12.5 53.5,11.5 53.5,10.5C 53.3284,9.50838 53.6618,8.84171 54.5,8.5 Z"/></g>
<g><path style="opacity:1" fill="#4c4c4c" d="M 47.5,13.5 C 47.5,13.8333 47.5,14.1667 47.5,14.5C 45.2362,15.2186 42.9029,15.552 40.5,15.5C 42.5145,14.0762 44.8478,13.4095 47.5,13.5 Z"/></g>
<g><path style="opacity:0.009" fill="#000000" d="M 36.5,16.5 C 35.8333,16.5 35.5,16.8333 35.5,17.5C 33.0248,17.2533 33.0248,16.5866 35.5,15.5C 36.1067,15.6236 36.44,15.9569 36.5,16.5 Z"/></g>
<g><path style="opacity:1" fill="#353535" d="M 36.5,16.5 C 37.1667,16.5 37.8333,16.5 38.5,16.5C 38.0269,17.9063 37.0269,18.573 35.5,18.5C 35.5,18.1667 35.5,17.8333 35.5,17.5C 36.1667,17.5 36.5,17.1667 36.5,16.5 Z"/></g>
<g><path style="opacity:1" fill="#595959" d="M 74.5,8.5 C 74.8333,8.5 75.1667,8.5 75.5,8.5C 76.4524,14.0748 76.7857,19.7414 76.5,25.5C 75.8712,30.3181 75.8712,35.3181 76.5,40.5C 75.71,39.3915 75.21,38.0581 75,36.5C 74.5002,27.1726 74.3335,17.8393 74.5,8.5 Z"/></g>
<g><path style="opacity:0.992" fill="#1f1f1f" d="M 35.5,18.5 C 33.1667,21.5 30.5,24.1667 27.5,26.5C 29.1667,22.8333 31.8333,20.1667 35.5,18.5 Z"/></g>
<g><path style="opacity:1" fill="#161616" d="M 42.5,24.5 C 48.7479,25.2147 48.9146,26.2147 43,27.5C 38.637,27.0877 38.4703,26.0877 42.5,24.5 Z"/></g>
<g><path style="opacity:0.006" fill="#e4e4e4" d="M 76.5,25.5 C 76.8333,25.5 77.1667,25.5 77.5,25.5C 77.1667,30.8333 76.8333,30.8333 76.5,25.5 Z"/></g>
<g><path style="opacity:0.925" fill="#2a2a2a" d="M 27.5,26.5 C 27.2624,28.4044 26.2624,29.7377 24.5,30.5C 24.7376,28.5956 25.7376,27.2623 27.5,26.5 Z"/></g>
<g><path style="opacity:0.878" fill="#282828" d="M 22.5,34.5 C 22.2587,36.8863 22.9254,38.8863 24.5,40.5C 19.8642,39.8887 19.1975,37.8887 22.5,34.5 Z"/></g>
<g><path style="opacity:1" fill="#404040" d="M 24.5,40.5 C 32.0542,42.1375 39.7208,42.8042 47.5,42.5C 47.5,42.8333 47.5,43.1667 47.5,43.5C 46.8333,43.5 46.5,43.8333 46.5,44.5C 38.7267,44.8731 31.3934,43.5398 24.5,40.5 Z"/></g>
<g><path style="opacity:1" fill="#cecece" d="M 50.5,51.5 C 51.0545,47.9878 50.3878,44.9878 48.5,42.5C 51.567,41.1291 54.567,39.4624 57.5,37.5C 57.8333,38 58.1667,38.5 58.5,39C 56.9196,44.026 54.2529,48.1927 50.5,51.5 Z"/></g>
<g><path style="opacity:0.01" fill="#1c1c1c" d="M 46.5,44.5 C 48.369,46.6353 49.0356,49.3019 48.5,52.5C 47.7451,49.9471 47.0784,47.2804 46.5,44.5 Z"/></g>
<g><path style="opacity:0.355" fill="#101010" d="M 47.5,43.5 C 47.5,43.1667 47.5,42.8333 47.5,42.5C 47.8333,42.5 48.1667,42.5 48.5,42.5C 50.3878,44.9878 51.0545,47.9878 50.5,51.5C 50.2064,54.7541 48.873,57.4208 46.5,59.5C 47.4552,57.2543 48.1218,54.921 48.5,52.5C 49.1582,51.2067 49.4915,49.7067 49.5,48C 49.4313,46.0145 48.7647,44.5145 47.5,43.5 Z"/></g>
<g><path style="opacity:1" fill="#383838" d="M 78.5,55.5 C 79.9238,57.5145 80.5905,59.8478 80.5,62.5C 78.8372,60.5615 78.1706,58.2282 78.5,55.5 Z"/></g>
<g><path style="opacity:0.902" fill="#181818" d="M 46.5,59.5 C 46.0075,61.8185 45.0075,63.8185 43.5,65.5C 43.461,62.911 44.461,60.911 46.5,59.5 Z"/></g>
<g><path style="opacity:0.012" fill="#191919" d="M 86.5,75.5 C 86.1667,75.5 85.8333,75.5 85.5,75.5C 85.8333,71.5 86.1667,71.5 86.5,75.5 Z"/></g>
<g><path style="opacity:0.013" fill="#000000" d="M 86.5,75.5 C 87.5735,76.2506 87.7401,77.2506 87,78.5C 86.5172,77.552 86.3505,76.552 86.5,75.5 Z"/></g>
<g><path style="opacity:1" fill="#444444" d="M 43.5,65.5 C 43.3898,70.6216 42.0564,75.2882 39.5,79.5C 40.2313,74.5615 41.5646,69.8949 43.5,65.5 Z"/></g>
<g><path style="opacity:1" fill="#404040" d="M 81.5,66.5 C 82.8333,69.5 84.1667,72.5 85.5,75.5C 85.5,76.8333 85.5,78.1667 85.5,79.5C 83.1022,75.597 81.7689,71.2637 81.5,66.5 Z"/></g>
<g><path style="opacity:0.406" fill="#282828" d="M 85.5,79.5 C 86.2679,80.2625 86.7679,81.2625 87,82.5C 87.4983,85.8168 87.665,89.1501 87.5,92.5C 85.5,93.8333 83.5,93.8333 81.5,92.5C 81.5,92.1667 81.5,91.8333 81.5,91.5C 83.1667,91.5 84.8333,91.5 86.5,91.5C 86.3542,87.4809 86.0209,83.4809 85.5,79.5 Z"/></g>
<g><path style="opacity:0.237" fill="#060606" d="M 38.5,83.5 C 38.3227,87.2343 38.6561,90.9009 39.5,94.5C 38.8826,94.3893 38.3826,94.056 38,93.5C 37.1925,89.9733 37.3592,86.6399 38.5,83.5 Z"/></g>
<g><path style="opacity:1" fill="#c5c5c5" d="M 81.5,91.5 C 81.5,91.8333 81.5,92.1667 81.5,92.5C 81.1583,93.3382 80.4916,93.6716 79.5,93.5C 77.901,93.7678 76.5676,93.4345 75.5,92.5C 77.4387,91.9862 78.4387,90.6528 78.5,88.5C 77.6042,86.1994 77.4375,83.8661 78,81.5C 79.4832,84.8026 80.6499,88.1359 81.5,91.5 Z"/></g>
<g><path style="opacity:0.014" fill="#050505" d="M 88.5,92.5 C 88.335,89.1501 88.5017,85.8168 89,82.5C 89.8075,86.0267 89.6408,89.3601 88.5,92.5 Z"/></g>
<g><path style="opacity:1" fill="#b6b6b6" d="M 47.5,93.5 C 46.5,94.1667 45.5,94.8333 44.5,95.5C 42.5453,96.9302 40.8786,96.5969 39.5,94.5C 40.7923,90.2627 42.959,86.2627 46,82.5C 45.0835,86.0152 44.5835,89.6818 44.5,93.5C 45.5,93.5 46.5,93.5 47.5,93.5 Z"/></g>
<g><path style="opacity:0.004" fill="#000000" d="M 87.5,92.5 C 87.8333,92.5 88.1667,92.5 88.5,92.5C 88.3147,93.1701 87.9813,93.1701 87.5,92.5 Z"/></g>
<g><path style="opacity:0.793" fill="#030303" d="M 75.5,92.5 C 76.5676,93.4345 77.901,93.7678 79.5,93.5C 79.5,93.8333 79.5,94.1667 79.5,94.5C 75.4559,94.1564 71.4559,93.4898 67.5,92.5C 66.2739,92.5195 65.2739,92.8529 64.5,93.5C 63.1667,93.8333 63.1667,94.1667 64.5,94.5C 64.3284,95.4916 64.6618,96.1583 65.5,96.5C 65.3284,97.4916 65.6618,98.1583 66.5,98.5C 66.5,100.5 67.5,101.5 69.5,101.5C 73.4459,104.65 77.7792,105.15 82.5,103C 85.6319,101.365 88.6319,99.5318 91.5,97.5C 94.7213,99.6128 96.0546,102.613 95.5,106.5C 93.0968,106.607 91.2635,105.607 90,103.5C 89.2828,104.044 88.7828,104.711 88.5,105.5C 87.5084,105.328 86.8417,105.662 86.5,106.5C 85.8333,106.5 85.5,106.833 85.5,107.5C 84.8333,107.5 84.5,107.833 84.5,108.5C 83.8333,108.5 83.5,108.833 83.5,109.5C 82.5084,109.328 81.8417,109.662 81.5,110.5C 80.5084,110.328 79.8417,110.662 79.5,111.5C 75.2076,111.965 71.2076,111.132 67.5,109C 64.2166,106.228 61.5499,103.061 59.5,99.5C 58.8333,96.8333 58.1667,96.8333 57.5,99.5C 56.8333,99.5 56.5,99.8333 56.5,100.5C 55.6618,100.842 55.3284,101.508 55.5,102.5C 54.6618,102.842 54.3284,103.508 54.5,104.5C 53.8333,104.5 53.5,104.833 53.5,105.5C 52.6618,105.842 52.3284,106.508 52.5,107.5C 51.6618,107.842 51.3284,108.508 51.5,109.5C 50.6618,109.842 50.3284,110.508 50.5,111.5C 49.6618,111.842 49.3284,112.508 49.5,113.5C 48.6618,113.842 48.3284,114.508 48.5,115.5C 47.6618,115.842 47.3284,116.508 47.5,117.5C 46.6618,117.842 46.3284,118.508 46.5,119.5C 45.6618,119.842 45.3284,120.508 45.5,121.5C 44.6618,121.842 44.3284,122.508 44.5,123.5C 43.8333,123.5 43.5,123.833 43.5,124.5C 41.0637,124.683 38.897,124.016 37,122.5C 36.1531,119.51 37.3198,118.176 40.5,118.5C 40.8333,119.833 41.1667,119.833 41.5,118.5C 44.2865,111.495 47.2865,104.495 50.5,97.5C 51.1667,97.5 51.5,97.1667 51.5,96.5C 52.8847,95.6977 52.718,95.0311 51,94.5C 50.2352,94.5699 49.7352,94.9033 49.5,95.5C 47.8333,95.5 46.1667,95.5 44.5,95.5C 45.5,94.8333 46.5,94.1667 47.5,93.5C 51.2155,93.3203 54.8822,93.6536 58.5,94.5C 63.8128,91.3537 69.4795,90.687 75.5,92.5 Z M 59.5,99.5 C 58.8333,99.5 58.1667,99.5 57.5,99.5C 58.1667,96.8333 58.8333,96.8333 59.5,99.5 Z M 66.5,98.5 C 67.8333,99.1667 68.8333,100.167 69.5,101.5C 67.5,101.5 66.5,100.5 66.5,98.5 Z"/></g>
<g><path style="opacity:0.018" fill="#0f0f0f" d="M 64.5,94.5 C 64.5,94.1667 64.5,93.8333 64.5,93.5C 66.1992,93.3398 67.8659,93.5065 69.5,94C 67.867,94.4796 66.5336,95.3129 65.5,96.5C 65.6716,95.5084 65.3382,94.8417 64.5,94.5 Z"/></g>
<g><path style="opacity:0.004" fill="#000000" d="M 87.5,93.5 C 86.8333,94.1667 86.8333,94.1667 87.5,93.5 Z"/></g>
<g><path style="opacity:0.014" fill="#000000" d="M 79.5,95.5 C 79.5,95.1667 79.5,94.8333 79.5,94.5C 82.1667,94.8333 82.1667,95.1667 79.5,95.5 Z"/></g>
<g><path style="opacity:0.01" fill="#000000" d="M 86.5,94.5 C 85.7494,95.5735 84.7494,95.7401 83.5,95C 84.448,94.5172 85.448,94.3505 86.5,94.5 Z"/></g>
<g><path style="opacity:0.022" fill="#000000" d="M 49.5,95.5 C 50.4916,95.3284 51.1583,95.6618 51.5,96.5C 50.8333,96.5 50.5,96.8333 50.5,97.5C 49.6618,97.1583 49.3284,96.4916 49.5,95.5 Z"/></g>
<g><path style="opacity:0.012" fill="#000000" d="M 79.5,95.5 C 78.0536,96.6129 76.3869,96.7796 74.5,96C 76.1341,95.5065 77.8008,95.3398 79.5,95.5 Z"/></g>
<g><path style="opacity:0.012" fill="#000000" d="M 90.5,96.5 C 90.8966,95.475 91.5632,95.3083 92.5,96C 91.9056,96.4643 91.2389,96.631 90.5,96.5 Z"/></g>
<g><path style="opacity:0.004" fill="#000000" d="M 93.5,96.5 C 94.8333,97.1667 94.8333,97.1667 93.5,96.5 Z"/></g>
<g><path style="opacity:0.01" fill="#000000" d="M 40.5,98.5 C 41.6009,97.4017 42.9343,97.235 44.5,98C 43.2068,98.49 41.8734,98.6567 40.5,98.5 Z"/></g>
<g><path style="opacity:0.014" fill="#000000" d="M 57.5,100.5 C 57.5,100.167 57.5,99.8333 57.5,99.5C 58.1667,99.5 58.8333,99.5 59.5,99.5C 59.5912,101.698 58.9245,102.031 57.5,100.5 Z"/></g>
<g><path style="opacity:0.012" fill="#000000" d="M 56.5,100.5 C 56.8333,100.5 57.1667,100.5 57.5,100.5C 57.6716,101.492 57.3382,102.158 56.5,102.5C 56.5,101.833 56.5,101.167 56.5,100.5 Z"/></g>
<g><path style="opacity:0.012" fill="#000000" d="M 96.5,106.5 C 96.3398,104.801 96.5065,103.134 97,101.5C 97.7796,103.387 97.6129,105.054 96.5,106.5 Z"/></g>
<g><path style="opacity:0.012" fill="#000000" d="M 55.5,102.5 C 55.8333,102.5 56.1667,102.5 56.5,102.5C 56.6716,103.492 56.3382,104.158 55.5,104.5C 55.5,103.833 55.5,103.167 55.5,102.5 Z"/></g>
<g><path style="opacity:0.016" fill="#000000" d="M 54.5,104.5 C 54.8333,104.5 55.1667,104.5 55.5,104.5C 55.3147,105.17 54.9813,105.17 54.5,104.5 Z"/></g>
<g><path style="opacity:0.01" fill="#000000" d="M 53.5,105.5 C 53.8333,105.5 54.1667,105.5 54.5,105.5C 54.6716,106.492 54.3382,107.158 53.5,107.5C 53.5,106.833 53.5,106.167 53.5,105.5 Z"/></g>
<g><path style="opacity:0.02" fill="#000000" d="M 88.5,105.5 C 89.8333,106.167 89.8333,106.167 88.5,105.5 Z"/></g>
<g><path style="opacity:0.009" fill="#000000" d="M 86.5,106.5 C 87.1667,106.5 87.8333,106.5 88.5,106.5C 88.0269,107.906 87.0269,108.573 85.5,108.5C 85.5,108.167 85.5,107.833 85.5,107.5C 86.1667,107.5 86.5,107.167 86.5,106.5 Z"/></g>
<g><path style="opacity:0.004" fill="#000000" d="M 95.5,106.5 C 95.8333,106.5 96.1667,106.5 96.5,106.5C 96.3147,107.17 95.9813,107.17 95.5,106.5 Z"/></g>
<g><path style="opacity:0.012" fill="#000000" d="M 52.5,107.5 C 52.8333,107.5 53.1667,107.5 53.5,107.5C 53.6716,108.492 53.3382,109.158 52.5,109.5C 52.5,108.833 52.5,108.167 52.5,107.5 Z"/></g>
<g><path style="opacity:0.013" fill="#000000" d="M 95.5,107.5 C 94.7494,108.573 93.7494,108.74 92.5,108C 93.448,107.517 94.448,107.351 95.5,107.5 Z"/></g>
<g><path style="opacity:0.02" fill="#000000" d="M 84.5,108.5 C 84.8333,108.5 85.1667,108.5 85.5,108.5C 85.3147,109.17 84.9813,109.17 84.5,108.5 Z"/></g>
<g><path style="opacity:0.012" fill="#000000" d="M 51.5,109.5 C 51.8333,109.5 52.1667,109.5 52.5,109.5C 52.6716,110.492 52.3382,111.158 51.5,111.5C 51.5,110.833 51.5,110.167 51.5,109.5 Z"/></g>
<g><path style="opacity:0.016" fill="#000000" d="M 83.5,109.5 C 83.8333,109.5 84.1667,109.5 84.5,109.5C 84.3147,110.17 83.9813,110.17 83.5,109.5 Z"/></g>
<g><path style="opacity:0.012" fill="#000000" d="M 81.5,111.5 C 81.5,111.167 81.5,110.833 81.5,110.5C 82.1667,110.5 82.8333,110.5 83.5,110.5C 83.1583,111.338 82.4916,111.672 81.5,111.5 Z"/></g>
<g><path style="opacity:0.012" fill="#000000" d="M 50.5,111.5 C 50.8333,111.5 51.1667,111.5 51.5,111.5C 51.6716,112.492 51.3382,113.158 50.5,113.5C 50.5,112.833 50.5,112.167 50.5,111.5 Z"/></g>
<g><path style="opacity:0.012" fill="#000000" d="M 79.5,112.5 C 79.5,112.167 79.5,111.833 79.5,111.5C 80.1667,111.5 80.8333,111.5 81.5,111.5C 81.1583,112.338 80.4916,112.672 79.5,112.5 Z"/></g>
<g><path style="opacity:0.013" fill="#000000" d="M 79.5,112.5 C 77.0336,113.634 74.367,113.801 71.5,113C 74.146,112.503 76.8127,112.336 79.5,112.5 Z"/></g>
<g><path style="opacity:0.012" fill="#000000" d="M 49.5,113.5 C 49.8333,113.5 50.1667,113.5 50.5,113.5C 50.6716,114.492 50.3382,115.158 49.5,115.5C 49.5,114.833 49.5,114.167 49.5,113.5 Z"/></g>
<g><path style="opacity:0.008" fill="#000000" d="M 41.5,118.5 C 41.1667,118.5 40.8333,118.5 40.5,118.5C 39.7375,117.732 38.7375,117.232 37.5,117C 40.3345,114.816 41.6678,115.316 41.5,118.5 Z"/></g>
<g><path style="opacity:0.012" fill="#000000" d="M 48.5,115.5 C 48.8333,115.5 49.1667,115.5 49.5,115.5C 49.6716,116.492 49.3382,117.158 48.5,117.5C 48.5,116.833 48.5,116.167 48.5,115.5 Z"/></g>
<g><path style="opacity:0.016" fill="#000000" d="M 47.5,117.5 C 47.8333,117.5 48.1667,117.5 48.5,117.5C 48.6716,118.492 48.3382,119.158 47.5,119.5C 47.5,118.833 47.5,118.167 47.5,117.5 Z"/></g>
<g><path style="opacity:0.014" fill="#000000" d="M 46.5,119.5 C 46.8333,119.5 47.1667,119.5 47.5,119.5C 47.6716,120.492 47.3382,121.158 46.5,121.5C 46.5,120.833 46.5,120.167 46.5,119.5 Z"/></g>
<g><path style="opacity:0.01" fill="#000000" d="M 45.5,121.5 C 45.8333,121.5 46.1667,121.5 46.5,121.5C 46.6716,122.492 46.3382,123.158 45.5,123.5C 45.5,122.833 45.5,122.167 45.5,121.5 Z"/></g>
<g><path style="opacity:0.004" fill="#000000" d="M 44.5,123.5 C 44.8333,123.5 45.1667,123.5 45.5,123.5C 45.3147,124.17 44.9813,124.17 44.5,123.5 Z"/></g>
<g><path style="opacity:0.008" fill="#000000" d="M 43.5,124.5 C 43.8333,124.5 44.1667,124.5 44.5,124.5C 44.3147,125.17 43.9813,125.17 43.5,124.5 Z"/></g>
<g><path style="opacity:0.006" fill="#000000" d="M 43.5,125.5 C 42.3991,126.598 41.0657,126.765 39.5,126C 40.7932,125.51 42.1266,125.343 43.5,125.5 Z"/></g>
</svg>
